<svg xmlns="http://www.w3.org/2000/svg" xmlns:xlink="http://www.w3.org/1999/xlink" version="1.1" x="0px" y="0px" viewBox="0 0 36 45" style="enable-background:new 0 0 36 36;" xml:space="preserve"><g><polygon points="20.84,7.35 18.09,6.13 18.47,13.95 25.21,16.93  "/><polygon points="11.94,27.47 21.98,24.25 15.23,21.27 9.2,26.26  "/><path d="M31.66,24.15c0.67-1.51-0.02-3.29-1.53-3.96L8.63,10.7c-0.2-0.09-0.32-0.29-0.3-0.5L8.9,4.26L6.03,2.99l-3.76,8.5   l1.38,3.57L27.7,25.69C29.21,26.35,30.99,25.67,31.66,24.15z"/><path d="M1.5,33.01h33c0.28,0,0.5-0.22,0.5-0.5s-0.22-0.5-0.5-0.5h-33c-0.28,0-0.5,0.22-0.5,0.5S1.22,33.01,1.5,33.01z"/></g><text x="0" y="51" fill="#000000" font-size="5px" font-weight="bold" font-family="'Helvetica Neue', Helvetica, Arial-Unicode, Arial, Sans-serif">Created by newstudiodesign10</text><text x="0" y="56" fill="#000000" font-size="5px" font-weight="bold" font-family="'Helvetica Neue', Helvetica, Arial-Unicode, Arial, Sans-serif">from the Noun Project</text></svg>