<?xml version="1.0" encoding="UTF-8"?>
<svg width="1200pt" height="1200pt" version="1.1" viewBox="0 0 1200 1200" xmlns="http://www.w3.org/2000/svg">
 <path d="m1199.1 461.83c-8.5938-31.273-88.465-33.961-120.6-23.258-116.87 38.867-233.75 77.746-350.64 116.63l-405.72-162.02-42.816 45.637 173.62 208.51c-111.91 38.688-316.88 110.12-354.09 122.48-32.027 10.668 206.96 44.578 261.76 35.473 0 0 420.98-137.32 607.12-199.25 47.844-15.91 95.711-31.824 143.55-47.746 32.016-10.648 97.141-62.523 87.816-96.461z"/>
 <path d="m32.52 621.5-32.52 30.047 86.242 100.61 124.98-44.016z"/>
</svg>
